<?xml version="1.0" encoding="utf-8"?>
<!-- Generator: Adobe Illustrator 14.0.0, SVG Export Plug-In . SVG Version: 6.00 Build 43363)  -->
<!DOCTYPE svg PUBLIC "-//W3C//DTD SVG 1.1//EN" "http://www.w3.org/Graphics/SVG/1.1/DTD/svg11.dtd">
<svg version="1.1" id="Ebene_1" xmlns="http://www.w3.org/2000/svg" xmlns:xlink="http://www.w3.org/1999/xlink" x="0px" y="0px"
	 width="748px" height="169px" viewBox="41.695 142.965 748 169" enable-background="new 41.695 142.965 748 169"
	 xml:space="preserve">
<text transform="matrix(1 0 0 1 248.0056 285.4016)" fill="#868686" font-family="'Tahoma-Bold'" font-size="141.7323">Bee</text>
<text transform="matrix(1 0 0 1 513.5461 285.4016)" font-family="'Tahoma'" font-size="141.7323">.</text>
<text transform="matrix(1 0 0 1 556.4543 285.4016)" font-family="'Tahoma'" font-size="80">Smart</text>
<path fill="#3D281A" d="M148.74,159.308l33.5,19.185v38.344l-33.5,19.185l-33.5-19.185v-38.344L148.74,159.308z M148.74,153.538
	l-38.5,22.062v44.126l38.5,22.063l38.5-22.063v-44.126L148.74,153.538z"/>
<path fill="#3D281A" d="M184.74,221.308l33.5,19.185v38.343l-33.5,19.185l-33.5-19.185v-38.343L184.74,221.308z M184.74,215.538
	l-38.5,22.062v44.126l38.5,22.063l38.5-22.063v-44.126L184.74,215.538z"/>
<path fill="#3D281A" d="M112.74,221.308l33.5,19.185v38.343l-33.5,19.185l-33.5-19.185v-38.343L112.74,221.308z M112.74,215.538
	l-38.5,22.062v44.126l38.5,22.063l38.5-22.063v-44.126L112.74,215.538z"/>
</svg>
